<svg version="1.1" id="Layer_1" xmlns="http://www.w3.org/2000/svg" xmlns:xlink="http://www.w3.org/1999/xlink" x="0px" y="0px"
	 width="100%" viewBox="0 0 500 500" enable-background="new 0 0 500 500" xml:space="preserve">
<path fill="#2563EB" opacity="1.000000" stroke="none" 
	d="
M483.000000,501.000000 
	C329.309265,501.000000 175.618515,501.000000 21.132673,500.864685 
	C9.845440,497.687500 3.202215,491.204346 1.893668,479.558960 
	C1.978097,327.722229 1.988715,176.344360 1.991127,24.966499 
	C1.991143,23.971460 1.877658,22.976423 1.889085,21.594669 
	C4.128040,16.734644 5.628964,11.723671 8.670134,7.955916 
	C11.161693,4.869082 15.487374,3.262673 19.000000,1.000000 
	C172.690750,1.000000 326.381500,1.000000 480.905792,1.000500 
	C491.588074,3.331825 497.570038,9.800468 501.000000,19.000000 
	C501.000000,173.690750 501.000000,328.381500 500.674744,483.665344 
	C497.477600,492.855988 491.067108,497.786377 483.000000,501.000000 
M258.261383,447.405609 
	C262.589050,447.212097 266.945740,447.273682 271.239929,446.785553 
	C313.152740,442.021301 350.111725,425.961639 381.785645,397.987671 
	C457.904144,330.760773 470.540955,215.318695 409.016846,134.490982 
	C359.996399,70.090141 293.653015,44.276672 214.293839,58.638428 
	C109.980255,77.516212 39.375759,178.165741 57.783215,284.432892 
	C74.482941,380.841309 159.775040,450.793152 258.261383,447.405609 
z"/>
<path fill="#DEEEF7" opacity="1.000000" stroke="none" 
	d="
M1.817172,21.981384 
	C1.877658,22.976423 1.991143,23.971460 1.991127,24.966499 
	C1.988715,176.344360 1.978097,327.722229 1.688540,479.566101 
	C1.409249,480.032104 1.000000,480.000000 1.000000,480.000000 
	C1.000000,327.641754 1.000000,175.283524 1.204008,22.445461 
	C1.408015,21.965645 1.817172,21.981384 1.817172,21.981384 
z"/>
<path fill="#EFFBF9" opacity="1.000000" stroke="none" 
	d="
M1.000000,480.468933 
	C1.000000,480.000000 1.409249,480.032104 1.614377,480.024963 
	C3.202215,491.204346 9.845440,497.687500 20.668789,500.864685 
	C14.405405,501.000000 7.810810,501.000000 1.000000,501.000000 
	C1.000000,494.314148 1.000000,487.626007 1.000000,480.468933 
z"/>
<path fill="#F0FBF9" opacity="1.000000" stroke="none" 
	d="
M1.889085,21.594669 
	C1.817172,21.981384 1.408015,21.965645 1.204008,21.982822 
	C1.000000,15.079894 1.000000,8.159787 1.000000,1.000000 
	C6.684634,1.000000 12.372608,1.000000 18.530293,1.000000 
	C15.487374,3.262673 11.161693,4.869082 8.670134,7.955916 
	C5.628964,11.723671 4.128040,16.734644 1.889085,21.594669 
z"/>
<path fill="#EFFAF9" opacity="1.000000" stroke="none" 
	d="
M501.000000,18.530293 
	C497.570038,9.800468 491.588074,3.331825 481.369690,1.000500 
	C487.588562,1.000000 494.177094,1.000000 501.000000,1.000000 
	C501.000000,6.684732 501.000000,12.372658 501.000000,18.530293 
z"/>
<path fill="#F0FBF9" opacity="1.000000" stroke="none" 
	d="
M483.469727,501.000000 
	C491.067108,497.786377 497.477600,492.855988 500.674744,484.129242 
	C501.000000,489.594482 501.000000,495.188995 501.000000,501.000000 
	C495.314392,501.000000 489.626923,501.000000 483.469727,501.000000 
z"/>
<path fill="#F1FCF9" opacity="1.000000" stroke="none" 
	d="
M257.784210,447.420959 
	C159.775040,450.793152 74.482941,380.841309 57.783215,284.432892 
	C39.375759,178.165741 109.980255,77.516212 214.293839,58.638428 
	C293.653015,44.276672 359.996399,70.090141 409.016846,134.490982 
	C470.540955,215.318695 457.904144,330.760773 381.785645,397.987671 
	C350.111725,425.961639 313.152740,442.021301 271.239929,446.785553 
	C266.945740,447.273682 262.589050,447.212097 257.784210,447.420959 
M421.700073,322.091156 
	C436.497467,285.856293 439.480957,248.659821 431.038605,210.454376 
	C408.761688,109.640907 304.927887,46.231800 205.176453,72.594543 
	C110.441803,97.631424 52.100689,189.983643 70.325516,286.059509 
	C89.176849,385.438110 185.858994,451.797180 285.110809,432.371887 
	C349.303558,419.808289 394.526031,382.414917 421.700073,322.091156 
z"/>
<path fill="#2664EB" opacity="1.000000" stroke="none" 
	d="
M421.520935,322.428894 
	C394.526031,382.414917 349.303558,419.808289 285.110809,432.371887 
	C185.858994,451.797180 89.176849,385.438110 70.325516,286.059509 
	C52.100689,189.983643 110.441803,97.631424 205.176453,72.594543 
	C304.927887,46.231800 408.761688,109.640907 431.038605,210.454376 
	C439.480957,248.659821 436.497467,285.856293 421.520935,322.428894 
M323.771881,154.240982 
	C281.681335,202.204758 239.588745,250.166733 197.501602,298.133514 
	C186.073456,311.158203 174.626846,324.166992 163.258316,337.243591 
	C157.927780,343.375000 159.229904,350.149200 166.152603,353.137665 
	C170.591522,355.053894 174.039719,353.775055 178.607269,348.574707 
	C221.378082,299.878632 264.155487,251.188278 306.925781,202.491745 
	C317.810822,190.098495 328.738464,177.741821 339.523407,165.261917 
	C344.070435,160.000229 343.528534,154.326996 338.490112,150.441666 
	C334.148254,147.093460 329.185455,148.221970 323.771881,154.240982 
M250.205658,324.709534 
	C264.072113,308.959778 277.941925,293.212952 291.804138,277.459473 
	C306.546539,260.705688 321.270691,243.935822 336.029327,227.196335 
	C339.075958,223.740784 340.993530,220.065353 338.961060,215.395874 
	C335.928619,208.429016 327.718811,207.582397 322.281525,213.751511 
	C308.957153,228.869385 295.685883,244.034058 282.392120,259.178955 
	C262.836273,281.457947 243.261917,303.720734 223.735489,326.025482 
	C218.919174,331.527069 218.881729,337.031555 223.424973,340.965179 
	C227.653763,344.626526 233.310196,343.799530 237.860214,338.748627 
	C241.872940,334.294189 245.795120,329.758209 250.205658,324.709534 
M238.259949,222.764435 
	C238.803101,222.133987 239.340927,221.498871 239.890213,220.873795 
	C252.965500,205.994385 266.054352,191.126846 279.111572,176.231598 
	C283.629517,171.077682 283.454285,165.202927 278.761749,161.310928 
	C274.588715,157.849823 269.211304,158.694260 264.759918,163.748230 
	C247.597137,183.234207 230.487183,202.766724 213.364853,222.288300 
	C197.559784,240.308029 181.731247,258.307343 165.981827,276.375641 
	C160.366791,282.817413 162.621231,290.829010 170.476944,292.694794 
	C174.962524,293.760101 178.052979,291.465607 180.851410,288.266266 
	C199.810287,266.591400 218.821060,244.961899 238.259949,222.764435 
M192.551010,217.053452 
	C205.645737,202.183044 218.787247,187.353439 231.809296,172.419662 
	C236.243759,167.334198 235.976913,161.873688 231.481018,157.831421 
	C227.468719,154.223969 221.727005,154.916641 217.462067,159.761551 
	C197.108490,182.882919 176.789780,206.035065 156.502319,229.214462 
	C151.927368,234.441544 151.883224,239.920166 156.152222,243.806122 
	C160.342529,247.620499 166.107239,246.972366 170.612198,241.941742 
	C177.831879,233.879608 184.925690,225.704742 192.551010,217.053452 
M296.506317,301.001434 
	C288.060364,310.637878 279.578644,320.243286 271.182678,329.923065 
	C266.586487,335.222046 266.526642,340.817474 270.840210,344.431793 
	C275.631836,348.446716 280.779053,347.735352 285.590668,342.260376 
	C305.694122,319.385315 325.780304,296.494965 345.847839,273.588348 
	C350.561584,268.207703 350.699860,262.423035 346.334137,258.578949 
	C341.951141,254.719650 336.361938,255.608246 331.552612,261.067841 
	C320.002502,274.179657 308.500488,287.333862 296.506317,301.001434 
M309.448029,351.609406 
	C313.946167,359.221893 320.489319,359.982544 326.309723,353.401703 
	C338.439423,339.687195 350.510712,325.920563 362.537476,312.115692 
	C366.739105,307.292938 366.549072,301.544525 362.310028,297.974030 
	C358.194855,294.507965 352.302826,295.269958 348.186188,299.938934 
	C336.185944,313.549316 324.072906,327.066895 312.407227,340.959351 
	C310.337067,343.424622 310.202789,347.515533 309.448029,351.609406 
M140.381302,189.988586 
	C136.049240,195.345535 135.881607,200.300400 139.902023,204.153870 
	C143.690262,207.784821 149.621231,207.866959 153.309982,203.739136 
	C166.178741,189.338547 178.889587,174.795807 191.557892,160.217941 
	C194.522842,156.806046 194.470123,152.900436 192.025955,149.136292 
	C188.398987,143.550568 181.640961,143.189621 176.837738,148.585495 
	C164.773193,162.138687 152.863983,175.830124 140.381302,189.988586 
z"/>
<path fill="#F2FDF9" opacity="1.000000" stroke="none" 
	d="
M323.999359,153.962997 
	C329.185455,148.221970 334.148254,147.093460 338.490112,150.441666 
	C343.528534,154.326996 344.070435,160.000229 339.523407,165.261917 
	C328.738464,177.741821 317.810822,190.098495 306.925781,202.491745 
	C264.155487,251.188278 221.378082,299.878632 178.607269,348.574707 
	C174.039719,353.775055 170.591522,355.053894 166.152603,353.137665 
	C159.229904,350.149200 157.927780,343.375000 163.258316,337.243591 
	C174.626846,324.166992 186.073456,311.158203 197.501602,298.133514 
	C239.588745,250.166733 281.681335,202.204758 323.999359,153.962997 
z"/>
<path fill="#F2FDF9" opacity="1.000000" stroke="none" 
	d="
M249.981476,324.983887 
	C245.795120,329.758209 241.872940,334.294189 237.860214,338.748627 
	C233.310196,343.799530 227.653763,344.626526 223.424973,340.965179 
	C218.881729,337.031555 218.919174,331.527069 223.735489,326.025482 
	C243.261917,303.720734 262.836273,281.457947 282.392120,259.178955 
	C295.685883,244.034058 308.957153,228.869385 322.281525,213.751511 
	C327.718811,207.582397 335.928619,208.429016 338.961060,215.395874 
	C340.993530,220.065353 339.075958,223.740784 336.029327,227.196335 
	C321.270691,243.935822 306.546539,260.705688 291.804138,277.459473 
	C277.941925,293.212952 264.072113,308.959778 249.981476,324.983887 
z"/>
<path fill="#F2FDF9" opacity="1.000000" stroke="none" 
	d="
M238.037506,223.041077 
	C218.821060,244.961899 199.810287,266.591400 180.851410,288.266266 
	C178.052979,291.465607 174.962524,293.760101 170.476944,292.694794 
	C162.621231,290.829010 160.366791,282.817413 165.981827,276.375641 
	C181.731247,258.307343 197.559784,240.308029 213.364853,222.288300 
	C230.487183,202.766724 247.597137,183.234207 264.759918,163.748230 
	C269.211304,158.694260 274.588715,157.849823 278.761749,161.310928 
	C283.454285,165.202927 283.629517,171.077682 279.111572,176.231598 
	C266.054352,191.126846 252.965500,205.994385 239.890213,220.873795 
	C239.340927,221.498871 238.803101,222.133987 238.037506,223.041077 
z"/>
<path fill="#F2FDF9" opacity="1.000000" stroke="none" 
	d="
M192.311859,217.315491 
	C184.925690,225.704742 177.831879,233.879608 170.612198,241.941742 
	C166.107239,246.972366 160.342529,247.620499 156.152222,243.806122 
	C151.883224,239.920166 151.927368,234.441544 156.502319,229.214462 
	C176.789780,206.035065 197.108490,182.882919 217.462067,159.761551 
	C221.727005,154.916641 227.468719,154.223969 231.481018,157.831421 
	C235.976913,161.873688 236.243759,167.334198 231.809296,172.419662 
	C218.787247,187.353439 205.645737,202.183044 192.311859,217.315491 
z"/>
<path fill="#F2FDF9" opacity="1.000000" stroke="none" 
	d="
M296.742706,300.736206 
	C308.500488,287.333862 320.002502,274.179657 331.552612,261.067841 
	C336.361938,255.608246 341.951141,254.719650 346.334137,258.578949 
	C350.699860,262.423035 350.561584,268.207703 345.847839,273.588348 
	C325.780304,296.494965 305.694122,319.385315 285.590668,342.260376 
	C280.779053,347.735352 275.631836,348.446716 270.840210,344.431793 
	C266.526642,340.817474 266.586487,335.222046 271.182678,329.923065 
	C279.578644,320.243286 288.060364,310.637878 296.742706,300.736206 
z"/>
<path fill="#F2FDF9" opacity="1.000000" stroke="none" 
	d="
M309.311279,351.232605 
	C310.202789,347.515533 310.337067,343.424622 312.407227,340.959351 
	C324.072906,327.066895 336.185944,313.549316 348.186188,299.938934 
	C352.302826,295.269958 358.194855,294.507965 362.310028,297.974030 
	C366.549072,301.544525 366.739105,307.292938 362.537476,312.115692 
	C350.510712,325.920563 338.439423,339.687195 326.309723,353.401703 
	C320.489319,359.982544 313.946167,359.221893 309.311279,351.232605 
z"/>
<path fill="#F2FDF9" opacity="1.000000" stroke="none" 
	d="
M140.636887,189.727356 
	C152.863983,175.830124 164.773193,162.138687 176.837738,148.585495 
	C181.640961,143.189621 188.398987,143.550568 192.025955,149.136292 
	C194.470123,152.900436 194.522842,156.806046 191.557892,160.217941 
	C178.889587,174.795807 166.178741,189.338547 153.309982,203.739136 
	C149.621231,207.866959 143.690262,207.784821 139.902023,204.153870 
	C135.881607,200.300400 136.049240,195.345535 140.636887,189.727356 
z"/>
</svg>